<svg width="24" height="24" viewBox="0 0 24 24" fill="none" xmlns="http://www.w3.org/2000/svg">
<g clip-path="url(#clip0_808_16720)">
<path d="M24 12C24 18.6274 18.6274 24 12 24C5.37262 24 0 18.6274 0 12C0 12.0028 12 0.00135937 12 0C18.6274 0 24 5.37262 24 12Z" fill="#0052B4"/>
<path d="M11.9678 12.0004H11.9999C11.9999 11.9895 11.9999 11.9791 11.9999 11.9683C11.9892 11.979 11.9785 11.9897 11.9678 12.0004Z" fill="#F0F0F0"/>
<path d="M11.9997 6.26183C11.9997 4.15035 11.9997 2.76674 11.9997 0.000976562H11.9977C5.37125 0.00205469 -0.000244141 5.37416 -0.000244141 12.0009H6.26061V8.47537L9.78617 12.0009H11.9677C11.9784 11.9902 11.9891 11.9796 11.9998 11.9688C11.9998 11.1604 11.9998 10.439 11.9998 9.78744L8.47419 6.26183H11.9997Z" fill="#F0F0F0"/>
<path d="M6.07124 1.56567C4.19441 2.63438 2.63413 4.19466 1.56543 6.07149V12.0005H4.69588V4.69617V4.69613H12.0002C12.0002 3.7088 12.0002 2.76821 12.0002 1.56567H6.07124Z" fill="#D80027"/>
<path d="M12.0006 10.5249L7.73714 6.2615H6.26147C6.26147 6.26145 6.26147 6.2615 6.26147 6.2615L12.0005 12.0005H12.0006C12.0006 12.0005 12.0006 10.9831 12.0006 10.5249Z" fill="#D80027"/>
<path d="M7.23753 14.0864L7.89613 15.4635L9.38333 15.1198L8.71733 16.4933L9.9133 17.4417L8.42422 17.7774L8.42839 19.3038L7.23753 18.3488L6.04672 19.3038L6.05089 17.7774L4.56177 17.4417L5.75778 16.4933L5.09169 15.1198L6.57899 15.4635L7.23753 14.0864Z" fill="#F0F0F0"/>
<path d="M17.967 16.6953L18.2963 17.3839L19.0399 17.212L18.7069 17.8987L19.3049 18.373L18.5603 18.5408L18.5624 19.304L17.967 18.8265L17.3716 19.304L17.3737 18.5408L16.6292 18.373L17.2271 17.8987L16.8941 17.212L17.6377 17.3839L17.967 16.6953Z" fill="#F0F0F0"/>
<path d="M14.9033 9.39136L15.2326 10.08L15.9762 9.90801L15.6432 10.5948L16.2412 11.069L15.4967 11.2368L15.4987 12L14.9033 11.5225L14.3079 12L14.3099 11.2368L13.5654 11.069L14.1634 10.5948L13.8304 9.90801L14.574 10.08L14.9033 9.39136Z" fill="#F0F0F0"/>
<path d="M17.967 5.21753L18.2963 5.90612L19.0399 5.73423L18.7069 6.421L19.3049 6.89519L18.5603 7.06305L18.5624 7.82627L17.967 7.34875L17.3716 7.82627L17.3737 7.06305L16.6292 6.89519L17.2271 6.421L16.8941 5.73423L17.6377 5.90612L17.967 5.21753Z" fill="#F0F0F0"/>
<path d="M20.6421 8.34766L20.9714 9.03625L21.715 8.86431L21.382 9.55108L21.98 10.0253L21.2354 10.1932L21.2375 10.9563L20.6421 10.4789L20.0467 10.9563L20.0487 10.1932L19.3042 10.0253L19.9022 9.55108L19.5692 8.86431L20.3128 9.03625L20.6421 8.34766Z" fill="#F0F0F0"/>
<path d="M18.7293 12.0002L18.9883 12.7974H19.8265L19.1483 13.2901L19.4074 14.0872L18.7293 13.5946L18.0512 14.0872L18.3102 13.2901L17.6321 12.7974H18.4703L18.7293 12.0002Z" fill="#F0F0F0"/>
</g>
<defs>
<clipPath id="clip0_808_16720">
<rect width="24" height="24" fill="white"/>
</clipPath>
</defs>
</svg>
