<svg width="18" height="20" viewBox="0 0 18 20" fill="none" xmlns="http://www.w3.org/2000/svg">
<g clip-path="url(#clip0_203_49)">
<path d="M9.00004 0C4.03755 0 6.10352e-05 4.48615 6.10352e-05 9.99997C6.10352e-05 15.5138 4.03755 19.9999 9.00004 19.9999C13.9628 19.9999 18 15.5138 18 9.99997C18 4.48615 13.9628 0 9.00004 0ZM9.00004 18.3523C4.85502 18.3523 1.48298 14.6057 1.48298 10C1.48298 5.39456 4.85502 1.64774 9.00004 1.64774C13.1451 1.64774 16.517 5.39456 16.517 10C16.517 14.6056 13.145 18.3523 9.00004 18.3523Z" fill="#D6BBFB" stroke="#D6BBFB" stroke-width="2"/>
<path d="M9.74149 9.67265V4.00948C9.74149 3.55451 9.40953 3.18561 9.00006 3.18561C8.59063 3.18561 8.25867 3.55451 8.25867 4.00948V10C8.25867 10.2558 8.36572 10.4811 8.53001 10.6324C8.53696 10.6417 8.54167 10.6521 8.5489 10.6613L11.3294 14.1692C11.476 14.3537 11.6806 14.4482 11.8861 14.4482C12.0599 14.4482 12.2349 14.3808 12.3757 14.2427C12.6831 13.9418 12.7127 13.4213 12.4422 13.0797L9.74149 9.67265Z" fill="#D6BBFB" stroke="#D6BBFB" stroke-width="2"/>
</g>
<defs>
<clipPath id="clip0_203_49">
<rect width="18" height="20" fill="white"/>
</clipPath>
</defs>
</svg>
