<svg width="20" height="18" viewBox="0 0 20 18" fill="none" xmlns="http://www.w3.org/2000/svg">
<path d="M0.833252 2.33331V7.33332M0.833252 7.33332H5.83325M0.833252 7.33332L4.69992 3.69998C5.59554 2.80391 6.70356 2.14932 7.92059 1.79729C9.13762 1.44527 10.424 1.40727 11.6597 1.68686C12.8954 1.96645 14.0401 2.55451 14.987 3.39616C15.934 4.23782 16.6523 5.30564 17.0749 6.49998M19.1666 15.6666V10.6666M19.1666 10.6666H14.1666M19.1666 10.6666L15.2999 14.3C14.4043 15.1961 13.2963 15.8506 12.0792 16.2027C10.8622 16.5547 9.57584 16.5927 8.34016 16.3131C7.10447 16.0335 5.95975 15.4455 5.01281 14.6038C4.06586 13.7621 3.34756 12.6943 2.92492 11.5" stroke="#344054" stroke-width="1.67" stroke-linecap="round" stroke-linejoin="round"/>
</svg>
