<svg width="18" height="18" viewBox="0 0 18 18" fill="none" xmlns="http://www.w3.org/2000/svg">
<mask id="path-1-inside-1_203_70" fill="white">
<path d="M14 9.625H4C3.1712 9.625 2.37634 9.95424 1.79029 10.5403C1.20424 11.1263 0.875 11.9212 0.875 12.75V17.125H2.125V12.75C2.125 12.2527 2.32254 11.7758 2.67417 11.4242C3.02581 11.0725 3.50272 10.875 4 10.875H14C14.4973 10.875 14.9742 11.0725 15.3258 11.4242C15.6775 11.7758 15.875 12.2527 15.875 12.75V17.125H17.125V12.75C17.125 11.9212 16.7958 11.1263 16.2097 10.5403C15.6237 9.95424 14.8288 9.625 14 9.625V9.625Z"/>
</mask>
<path d="M14 9.625H4C3.1712 9.625 2.37634 9.95424 1.79029 10.5403C1.20424 11.1263 0.875 11.9212 0.875 12.75V17.125H2.125V12.75C2.125 12.2527 2.32254 11.7758 2.67417 11.4242C3.02581 11.0725 3.50272 10.875 4 10.875H14C14.4973 10.875 14.9742 11.0725 15.3258 11.4242C15.6775 11.7758 15.875 12.2527 15.875 12.75V17.125H17.125V12.75C17.125 11.9212 16.7958 11.1263 16.2097 10.5403C15.6237 9.95424 14.8288 9.625 14 9.625V9.625Z" fill="#D6BBFB"/>
<path d="M0.875 12.75H-1.125H0.875ZM0.875 17.125H-1.125V19.125H0.875V17.125ZM2.125 17.125V19.125H4.125V17.125H2.125ZM4 10.875L4 8.875L4 10.875ZM14 10.875V8.875V10.875ZM15.875 12.75L17.875 12.75L15.875 12.75ZM15.875 17.125H13.875V19.125H15.875V17.125ZM17.125 17.125V19.125H19.125V17.125H17.125ZM17.125 12.75H15.125H17.125ZM14 7.625H4V11.625H14V7.625ZM4 7.625C2.64077 7.625 1.3372 8.16495 0.376078 9.12608L3.2045 11.9545C3.41548 11.7435 3.70163 11.625 4 11.625V7.625ZM0.376078 9.12608C-0.585046 10.0872 -1.125 11.3908 -1.125 12.75H2.875C2.875 12.4516 2.99353 12.1655 3.2045 11.9545L0.376078 9.12608ZM-1.125 12.75V17.125H2.875V12.75H-1.125ZM0.875 19.125H2.125V15.125H0.875V19.125ZM4.125 17.125V12.75H0.125V17.125H4.125ZM4.125 12.75C4.125 12.7832 4.11183 12.8149 4.08839 12.8384L1.25996 10.01C0.533258 10.7367 0.125 11.7223 0.125 12.75H4.125ZM4.08839 12.8384C4.06495 12.8618 4.03315 12.875 4 12.875L4 8.875C2.97229 8.875 1.98667 9.28326 1.25996 10.01L4.08839 12.8384ZM4 12.875H14V8.875H4V12.875ZM14 12.875C13.9668 12.875 13.9351 12.8618 13.9116 12.8384L16.74 10.01C16.0133 9.28326 15.0277 8.875 14 8.875L14 12.875ZM13.9116 12.8384C13.8882 12.8149 13.875 12.7832 13.875 12.75L17.875 12.75C17.875 11.7223 17.4667 10.7367 16.74 10.01L13.9116 12.8384ZM13.875 12.75V17.125H17.875V12.75H13.875ZM15.875 19.125H17.125V15.125H15.875V19.125ZM19.125 17.125V12.75H15.125V17.125H19.125ZM19.125 12.75C19.125 11.3908 18.585 10.0872 17.6239 9.12608L14.7955 11.9545C15.0065 12.1655 15.125 12.4516 15.125 12.75L19.125 12.75ZM17.6239 9.12608C16.6628 8.16495 15.3592 7.625 14 7.625V11.625C14.2984 11.625 14.5845 11.7435 14.7955 11.9545L17.6239 9.12608Z" fill="#D6BBFB" mask="url(#path-1-inside-1_203_70)"/>
<mask id="path-3-inside-2_203_70" fill="white">
<path d="M9 8.375C9.74168 8.375 10.4667 8.15507 11.0834 7.74301C11.7001 7.33096 12.1807 6.74529 12.4645 6.06006C12.7484 5.37484 12.8226 4.62084 12.6779 3.89341C12.5333 3.16598 12.1761 2.4978 11.6517 1.97335C11.1272 1.4489 10.459 1.09175 9.73159 0.947057C9.00416 0.802362 8.25016 0.876625 7.56494 1.16045C6.87971 1.44428 6.29404 1.92493 5.88199 2.54161C5.46993 3.1583 5.25 3.88332 5.25 4.625C5.25 5.61956 5.64509 6.57339 6.34835 7.27665C7.05161 7.97991 8.00544 8.375 9 8.375ZM9 2.125C9.49445 2.125 9.9778 2.27162 10.3889 2.54633C10.8 2.82103 11.1205 3.21148 11.3097 3.66829C11.4989 4.12511 11.5484 4.62778 11.452 5.11273C11.3555 5.59768 11.1174 6.04314 10.7678 6.39277C10.4181 6.7424 9.97268 6.9805 9.48773 7.07697C9.00277 7.17343 8.50011 7.12392 8.04329 6.9347C7.58648 6.74548 7.19603 6.42505 6.92133 6.01393C6.64662 5.6028 6.5 5.11946 6.5 4.625C6.5 3.96196 6.76339 3.32608 7.23223 2.85723C7.70107 2.38839 8.33696 2.125 9 2.125V2.125Z"/>
</mask>
<path d="M9 8.375C9.74168 8.375 10.4667 8.15507 11.0834 7.74301C11.7001 7.33096 12.1807 6.74529 12.4645 6.06006C12.7484 5.37484 12.8226 4.62084 12.6779 3.89341C12.5333 3.16598 12.1761 2.4978 11.6517 1.97335C11.1272 1.4489 10.459 1.09175 9.73159 0.947057C9.00416 0.802362 8.25016 0.876625 7.56494 1.16045C6.87971 1.44428 6.29404 1.92493 5.88199 2.54161C5.46993 3.1583 5.25 3.88332 5.25 4.625C5.25 5.61956 5.64509 6.57339 6.34835 7.27665C7.05161 7.97991 8.00544 8.375 9 8.375ZM9 2.125C9.49445 2.125 9.9778 2.27162 10.3889 2.54633C10.8 2.82103 11.1205 3.21148 11.3097 3.66829C11.4989 4.12511 11.5484 4.62778 11.452 5.11273C11.3555 5.59768 11.1174 6.04314 10.7678 6.39277C10.4181 6.7424 9.97268 6.9805 9.48773 7.07697C9.00277 7.17343 8.50011 7.12392 8.04329 6.9347C7.58648 6.74548 7.19603 6.42505 6.92133 6.01393C6.64662 5.6028 6.5 5.11946 6.5 4.625C6.5 3.96196 6.76339 3.32608 7.23223 2.85723C7.70107 2.38839 8.33696 2.125 9 2.125V2.125Z" fill="#D6BBFB"/>
<path d="M9 8.375V6.375V8.375ZM9 10.375C10.1372 10.375 11.2489 10.0378 12.1945 9.40595L9.97225 6.08007C9.68446 6.27237 9.34612 6.375 9 6.375L9 10.375ZM12.1945 9.40595C13.1401 8.77413 13.8771 7.87611 14.3123 6.82543L10.6168 5.2947C10.4843 5.61447 10.26 5.88778 9.97225 6.08007L12.1945 9.40595ZM14.3123 6.82543C14.7475 5.77476 14.8614 4.61862 14.6395 3.50323L10.7164 4.28359C10.7839 4.62306 10.7492 4.97493 10.6168 5.2947L14.3123 6.82543ZM14.6395 3.50323C14.4177 2.38784 13.87 1.36329 13.0659 0.559138L10.2374 3.38756C10.4822 3.63231 10.6489 3.94413 10.7164 4.28359L14.6395 3.50323ZM13.0659 0.559138C12.2617 -0.245014 11.2372 -0.792649 10.1218 -1.01451L9.34141 2.90863C9.68088 2.97615 9.9927 3.14282 10.2374 3.38756L13.0659 0.559138ZM10.1218 -1.01451C9.00638 -1.23638 7.85025 -1.12251 6.79957 -0.687306L8.3303 3.00821C8.65007 2.87576 9.00194 2.8411 9.34141 2.90863L10.1218 -1.01451ZM6.79957 -0.687306C5.74889 -0.252101 4.85087 0.484891 4.21905 1.43047L7.54493 3.65275C7.73722 3.36497 8.01053 3.14067 8.3303 3.00821L6.79957 -0.687306ZM4.21905 1.43047C3.58723 2.37606 3.25 3.48776 3.25 4.625H7.25C7.25 4.27889 7.35264 3.94054 7.54493 3.65275L4.21905 1.43047ZM3.25 4.625C3.25 6.15 3.8558 7.61253 4.93414 8.69087L7.76256 5.86244C7.43437 5.53425 7.25 5.08913 7.25 4.625H3.25ZM4.93414 8.69087C6.01247 9.7692 7.475 10.375 9 10.375V6.375C8.53587 6.375 8.09075 6.19063 7.76256 5.86244L4.93414 8.69087ZM9 4.125C9.09889 4.125 9.19556 4.15433 9.27778 4.20927L11.5001 0.883388C10.76 0.388922 9.89002 0.125002 9 0.125002L9 4.125ZM9.27778 4.20927C9.36001 4.26421 9.4241 4.3423 9.46194 4.43366L13.1575 2.90293C12.8169 2.08066 12.2401 1.37785 11.5001 0.883388L9.27778 4.20927ZM9.46194 4.43366C9.49978 4.52502 9.50969 4.62556 9.49039 4.72255L13.4135 5.50291C13.5872 4.62999 13.4981 3.72519 13.1575 2.90293L9.46194 4.43366ZM9.49039 4.72255C9.4711 4.81954 9.42348 4.90863 9.35355 4.97856L12.182 7.80698C12.8113 7.17765 13.2399 6.37582 13.4135 5.50291L9.49039 4.72255ZM9.35355 4.97856C9.28363 5.04848 9.19453 5.0961 9.09755 5.11539L9.87791 9.03854C10.7508 8.8649 11.5526 8.43632 12.182 7.80698L9.35355 4.97856ZM9.09755 5.11539C9.00055 5.13469 8.90002 5.12479 8.80866 5.08694L7.27792 8.78246C8.10019 9.12305 9.00499 9.21217 9.87791 9.03854L9.09755 5.11539ZM8.80866 5.08694C8.7173 5.0491 8.63921 4.98501 8.58427 4.90279L5.25839 7.12507C5.75285 7.86509 6.45566 8.44186 7.27792 8.78246L8.80866 5.08694ZM8.58427 4.90279C8.52932 4.82056 8.5 4.72389 8.5 4.625H4.5C4.5 5.51502 4.76392 6.38505 5.25839 7.12507L8.58427 4.90279ZM8.5 4.625C8.5 4.49239 8.55268 4.36522 8.64645 4.27145L5.81802 1.44302C4.97411 2.28694 4.5 3.43153 4.5 4.625H8.5ZM8.64645 4.27145C8.74021 4.17768 8.86739 4.125 9 4.125L9 0.125002C7.80653 0.125002 6.66193 0.599107 5.81802 1.44302L8.64645 4.27145Z" fill="#D6BBFB" mask="url(#path-3-inside-2_203_70)"/>
</svg>
