<svg width="24" height="24" viewBox="0 0 24 24" fill="none" xmlns="http://www.w3.org/2000/svg">
<g clip-path="url(#clip0_207_2)">
<path d="M23.9637 9.24367C23.8767 8.97587 23.6452 8.78067 23.3666 8.74023L15.9708 7.66509L12.6635 0.963609C12.5388 0.711099 12.2817 0.551208 12.0001 0.551208C11.7185 0.551208 11.4614 0.711099 11.3367 0.963609L8.02943 7.66509L0.633444 8.74023C0.354697 8.78077 0.123196 8.97597 0.0361989 9.24367C-0.0507988 9.51147 0.0216993 9.80541 0.223411 10.002L5.57515 15.2185L4.3119 22.5839C4.26436 22.8615 4.37839 23.142 4.60614 23.3074C4.83389 23.4729 5.13592 23.4948 5.38517 23.3637L12.0001 19.8864L18.615 23.3637C18.7232 23.4206 18.8415 23.4486 18.9592 23.4486C18.9599 23.4486 18.9605 23.4486 18.9612 23.4486C18.9612 23.4486 18.9612 23.4486 18.9613 23.4486C19.3699 23.4486 19.7011 23.1174 19.7011 22.7089C19.7011 22.6468 19.6934 22.5866 19.6791 22.529L18.4251 15.2183L23.7766 10.0019C23.9782 9.80551 24.0508 9.51147 23.9637 9.24367ZM17.1139 14.4305C16.9395 14.6004 16.8599 14.8454 16.9011 15.0853L17.9768 21.3568L12.3445 18.3959C12.129 18.2825 11.8715 18.2825 11.6561 18.3959L6.02365 21.3568L7.09938 15.0853C7.14061 14.8454 7.06101 14.6005 6.88662 14.4305L2.3297 9.98877L8.62736 9.07333C8.86833 9.03831 9.07665 8.887 9.18436 8.66862L12.0004 2.96258L14.8165 8.66862C14.9242 8.8869 15.1326 9.03831 15.3734 9.07333L21.6708 9.98877L17.1139 14.4305Z" fill="#D6BBFB"/>
</g>
<defs>
<clipPath id="clip0_207_2">
<rect width="24" height="24" fill="white"/>
</clipPath>
</defs>
</svg>
