<svg width="20" height="20" viewBox="0 0 20 20" fill="none" xmlns="http://www.w3.org/2000/svg">
<g clip-path="url(#clip0_203_73)">
<path d="M1.63934 13.3115C0.852459 13.3115 0 13.4427 0 14.3935V17.8361C0 18.7869 0.852459 18.9181 1.63934 18.9181C2.42623 18.9181 3.27869 18.7869 3.27869 17.8361V14.3935C3.27869 13.4427 2.42623 13.3115 1.63934 13.3115Z" fill="white" stroke="#D6BBFB" stroke-width="2"/>
<path d="M1.73774 18.8853C2.52463 18.8853 3.27873 18.7541 3.27873 17.8033V14.3935C3.27873 13.4427 2.49184 13.3115 1.70496 13.3115" fill="white"/>
<path d="M1.73774 18.8853C2.52463 18.8853 3.27873 18.7541 3.27873 17.8033V14.3935C3.27873 13.4427 2.49184 13.3115 1.70496 13.3115" stroke="#D6BBFB" stroke-width="2"/>
<path d="M7.37702 9.24585C6.59014 9.24585 5.90161 9.377 5.90161 10.3278V17.836C5.90161 18.7868 6.59014 18.918 7.37702 18.918C8.16391 18.918 8.85243 18.7868 8.85243 17.836V10.3278C8.85243 9.377 8.16391 9.24585 7.37702 9.24585Z" fill="#D6BBFB" stroke="#D6BBFB" stroke-width="2"/>
<path d="M7.31147 18.8852C8.09836 18.8852 8.85246 18.754 8.85246 17.8032V10.3278C8.85246 9.377 8.06557 9.24585 7.27869 9.24585" fill="#D6BBFB"/>
<path d="M12.9509 5.1803C12.164 5.1803 11.4755 5.31145 11.4755 6.26227V17.836C11.4755 18.7869 12.164 18.918 12.9509 18.918C13.7378 18.918 14.4263 18.7869 14.4263 17.836V6.26227C14.4263 5.31145 13.7378 5.1803 12.9509 5.1803Z" fill="#D6BBFB" stroke="#D6BBFB" stroke-width="2"/>
<path d="M12.8852 18.8852C13.6721 18.8852 14.4262 18.7541 14.4262 17.8032V6.26227C14.4262 5.31145 13.6393 5.1803 12.8524 5.1803" fill="#D6BBFB"/>
<path d="M12.8852 18.8852C13.6721 18.8852 14.4262 18.7541 14.4262 17.8032V6.26227C14.4262 5.31145 13.6393 5.1803 12.8524 5.1803" stroke="#D6BBFB" stroke-width="2"/>
<path d="M19.0164 1.13635C18.2295 1.13635 17.541 1.2675 17.541 2.21832V17.8577C17.541 18.8085 18.2295 18.9396 19.0164 18.9396C19.8033 18.9396 20.4918 18.8085 20.4918 17.8577V2.18553C20.4918 1.23471 19.8033 1.13635 19.0164 1.13635Z" fill="#D6BBFB" stroke="#D6BBFB" stroke-width="2"/>
<path d="M18.4591 18.8852C19.2459 18.8852 20 18.754 20 17.8032V2.16388C20 1.21306 19.2132 1.08191 18.4263 1.08191" fill="#D6BBFB"/>
<path d="M18.4591 18.8852C19.2459 18.8852 20 18.754 20 17.8032V2.16388C20 1.21306 19.2132 1.08191 18.4263 1.08191" stroke="#D6BBFB" stroke-width="2"/>
</g>
<defs>
<clipPath id="clip0_203_73">
<rect width="20" height="20" fill="white"/>
</clipPath>
</defs>
</svg>
